<svg xmlns="http://www.w3.org/2000/svg" viewBox="0 0 100 100" fill="none" shape-rendering="auto"><metadata xmlns:rdf="http://www.w3.org/1999/02/22-rdf-syntax-ns#" xmlns:xsi="http://www.w3.org/2001/XMLSchema-instance" xmlns:dc="http://purl.org/dc/elements/1.1/" xmlns:dcterms="http://purl.org/dc/terms/"><rdf:RDF><rdf:Description><dc:title>Thumbs</dc:title><dc:creator>DiceBear</dc:creator><dc:source xsi:type="dcterms:URI">https://www.dicebear.com</dc:source><dcterms:license xsi:type="dcterms:URI">https://creativecommons.org/publicdomain/zero/1.0/</dcterms:license><dc:rights>„Thumbs” (https://www.dicebear.com) by „DiceBear”, licensed under „CC0 1.0” (https://creativecommons.org/publicdomain/zero/1.0/)</dc:rights></rdf:Description></rdf:RDF></metadata><mask id="viewboxMask"><rect width="100" height="100" rx="0" ry="0" x="0" y="0" fill="#fff" /></mask><g mask="url(#viewboxMask)"><rect fill="#69d2e7" width="100" height="100" x="0" y="0" /><g transform="translate(3, 2) rotate(-14 50 70)"><path d="M95 53.33C95 29.4 74.85 10 50 10S5 29.4 5 53.33V140h90V53.33Z" fill="#f1f4dc"/><g transform="translate(29 33)"><g transform="translate(4, 15) rotate(-20 21 21)"><g transform="translate(0 2)"><path d="M-2.75 8.12C-1.34 11.86 9 16 9 16s5.17-9.58 3.76-13.32c0 0-1.41-3.74-5.3-2.38-3.87 1.36-2.7 4.48-2.7 4.48S3.6 1.66-.27 3.02c-3.88 1.36-2.47 5.1-2.47 5.1ZM29.24 2.68C27.84 6.42 33 16 33 16s10.34-4.14 11.75-7.88c0 0 1.41-3.74-2.47-5.1-3.87-1.36-5.05 1.76-5.05 1.76s1.18-3.12-2.7-4.48c-3.88-1.36-5.29 2.38-5.29 2.38Z" fill="#000000"/></g><g transform="translate(6 26)"><path d="M15 10C6.79 10 3.02 3.88 4.22 3.12 5.42 2.35 6.1 6.6 15 6.49c8.9-.12 9.58-4.23 10.78-3.37C26.98 3.98 23.21 10 15 10Z" fill="#000000"/></g></g></g></g></g></svg>