<svg xmlns="http://www.w3.org/2000/svg" viewBox="0 0 100 100" fill="none" shape-rendering="auto"><metadata xmlns:rdf="http://www.w3.org/1999/02/22-rdf-syntax-ns#" xmlns:xsi="http://www.w3.org/2001/XMLSchema-instance" xmlns:dc="http://purl.org/dc/elements/1.1/" xmlns:dcterms="http://purl.org/dc/terms/"><rdf:RDF><rdf:Description><dc:title>Thumbs</dc:title><dc:creator>DiceBear</dc:creator><dc:source xsi:type="dcterms:URI">https://www.dicebear.com</dc:source><dcterms:license xsi:type="dcterms:URI">https://creativecommons.org/publicdomain/zero/1.0/</dcterms:license><dc:rights>„Thumbs” (https://www.dicebear.com) by „DiceBear”, licensed under „CC0 1.0” (https://creativecommons.org/publicdomain/zero/1.0/)</dc:rights></rdf:Description></rdf:RDF></metadata><mask id="viewboxMask"><rect width="100" height="100" rx="0" ry="0" x="0" y="0" fill="#fff" /></mask><g mask="url(#viewboxMask)"><rect fill="#1c799f" width="100" height="100" x="0" y="0" /><g transform="translate(4, -2) rotate(-20 50 70)"><path d="M95 53.33C95 29.4 74.85 10 50 10S5 29.4 5 53.33V140h90V53.33Z" fill="#0a5b83"/><g transform="translate(29 33)"><g transform="translate(-1, -14) rotate(-11 21 21)"><g transform="translate(0 5)"><path d="M10.5 6C7.29 6 6 7.36 6 8.04c0 3.4 1.29 1.35 4.5 1.35S15 11.43 15 8.04C15 7.36 13.71 6 10.5 6ZM31.5 6C28.29 6 27 7.36 27 8.04c0 3.4 1.29 1.35 4.5 1.35S36 11.43 36 8.04C36 7.36 34.71 6 31.5 6Z" fill="#ffffff"/></g><g transform="translate(6 23)"><path d="M15 14C1.9 14-.72 1.29.15.23 1.03-.83 6.27 2.11 15 2.11S28.97-.83 29.85.23C30.72 1.3 28.1 14 15 14Z" fill="#ffffff"/></g></g></g></g></g></svg>