<svg xmlns="http://www.w3.org/2000/svg" viewBox="0 0 100 100" fill="none" shape-rendering="auto"><metadata xmlns:rdf="http://www.w3.org/1999/02/22-rdf-syntax-ns#" xmlns:xsi="http://www.w3.org/2001/XMLSchema-instance" xmlns:dc="http://purl.org/dc/elements/1.1/" xmlns:dcterms="http://purl.org/dc/terms/"><rdf:RDF><rdf:Description><dc:title>Thumbs</dc:title><dc:creator>DiceBear</dc:creator><dc:source xsi:type="dcterms:URI">https://www.dicebear.com</dc:source><dcterms:license xsi:type="dcterms:URI">https://creativecommons.org/publicdomain/zero/1.0/</dcterms:license><dc:rights>„Thumbs” (https://www.dicebear.com) by „DiceBear”, licensed under „CC0 1.0” (https://creativecommons.org/publicdomain/zero/1.0/)</dc:rights></rdf:Description></rdf:RDF></metadata><mask id="viewboxMask"><rect width="100" height="100" rx="0" ry="0" x="0" y="0" fill="#fff" /></mask><g mask="url(#viewboxMask)"><rect fill="#0a5b83" width="100" height="100" x="0" y="0" /><g transform="translate(4, 1) rotate(20 50 70)"><path d="M95 53.33C95 29.4 74.85 10 50 10S5 29.4 5 53.33V140h90V53.33Z" fill="#f1f4dc"/><g transform="translate(29 33)"><g transform="translate(-1, 12) rotate(-6 21 21)"><g transform="translate(0 2)"><path d="M5 8.36S5 4 9 4s4 4.36 4 4.36v2.91s0 .73-.67.73c-.66 0-.66-2.9-3.33-2.9S6.33 12 5.67 12C5 12 5 11.27 5 11.27v-2.9ZM29 8.36S29 4 33 4s4 4.36 4 4.36v2.91s0 .73-.67.73c-.66 0-.66-2.9-3.33-2.9S30.33 12 29.67 12c-.67 0-.67-.73-.67-.73v-2.9Z" fill="#000000"/></g><g transform="translate(6 26)"><path d="M15 10C6.79 10 3.02 3.88 4.22 3.12 5.42 2.35 6.1 6.6 15 6.49c8.9-.12 9.58-4.23 10.78-3.37C26.98 3.98 23.21 10 15 10Z" fill="#000000"/></g></g></g></g></g></svg>