<svg xmlns="http://www.w3.org/2000/svg" viewBox="0 0 100 100" fill="none" shape-rendering="auto"><metadata xmlns:rdf="http://www.w3.org/1999/02/22-rdf-syntax-ns#" xmlns:xsi="http://www.w3.org/2001/XMLSchema-instance" xmlns:dc="http://purl.org/dc/elements/1.1/" xmlns:dcterms="http://purl.org/dc/terms/"><rdf:RDF><rdf:Description><dc:title>Thumbs</dc:title><dc:creator>DiceBear</dc:creator><dc:source xsi:type="dcterms:URI">https://www.dicebear.com</dc:source><dcterms:license xsi:type="dcterms:URI">https://creativecommons.org/publicdomain/zero/1.0/</dcterms:license><dc:rights>„Thumbs” (https://www.dicebear.com) by „DiceBear”, licensed under „CC0 1.0” (https://creativecommons.org/publicdomain/zero/1.0/)</dc:rights></rdf:Description></rdf:RDF></metadata><mask id="viewboxMask"><rect width="100" height="100" rx="0" ry="0" x="0" y="0" fill="#fff" /></mask><g mask="url(#viewboxMask)"><rect fill="#f1f4dc" width="100" height="100" x="0" y="0" /><g transform="translate(5, -5) rotate(3 50 70)"><path d="M95 53.33C95 29.4 74.85 10 50 10S5 29.4 5 53.33V140h90V53.33Z" fill="#69d2e7"/><g transform="translate(29 33)"><g transform="translate(-11, 6) rotate(13 21 21)"><g transform="translate(0 4)"><path d="M6 8.36S6 4 10 4s4 4.36 4 4.36v2.91s0 .73-.67.73c-.66 0-.66-2.9-3.33-2.9S7.33 12 6.67 12C6 12 6 11.27 6 11.27v-2.9ZM28 8.36S28 4 32 4s4 4.36 4 4.36v2.91s0 .73-.67.73c-.66 0-.66-2.9-3.33-2.9S29.33 12 28.67 12c-.67 0-.67-.73-.67-.73v-2.9Z" fill="#ffffff"/></g><g transform="translate(6 24)"><path d="M15.5 10c-5.07 0-9.3-5.23-8.37-5.88.93-.65 3.45 2.15 8.37 2.15 4.92 0 7.44-2.88 8.37-2.15.93.73-3.3 5.88-8.37 5.88Z" fill="#ffffff"/></g></g></g></g></g></svg>